<svg version="1.1" xmlns="http://www.w3.org/2000/svg" viewBox="0 0 121.20173353993226 21.9816824567597" width="121.20173353993226" height="21.9816824567597">
  <!-- svg-source:excalidraw -->
  
  <defs>
    <style class="style-fonts">
      @font-face {
        font-family: "Virgil";
        src: url("https://excalidraw.com/Virgil.woff2");
      }
      @font-face {
        font-family: "Cascadia";
        src: url("https://excalidraw.com/Cascadia.woff2");
      }
    </style>
    
  </defs>
  <g stroke-linecap="round"><g transform="translate(10.270895978482429 9.872850123708474) rotate(0 50.3299707914837 1.1179911046713755)"><path d="M0.78 1.18 C17.39 1.4, 82.33 1.93, 98.62 2.11 M-0.27 0.76 C16.82 0.53, 84.07 0.23, 100.93 0.13" stroke="#1e1e1e" stroke-width="1" fill="none"></path></g><g transform="translate(10.270895978482429 9.872850123708474) rotate(0 50.3299707914837 1.1179911046713755)"><path d="M74.77 9.26 C79.1 6.67, 85.31 6.02, 100.07 1.88 M72.84 10.74 C79.89 7.93, 85.18 6.64, 101.24 -0.33" stroke="#1e1e1e" stroke-width="1" fill="none"></path></g><g transform="translate(10.270895978482429 9.872850123708474) rotate(0 50.3299707914837 1.1179911046713755)"><path d="M74.66 -11.26 C79.15 -9.53, 85.39 -5.86, 100.07 1.88 M72.73 -9.78 C79.87 -7.84, 85.19 -4.38, 101.24 -0.33" stroke="#1e1e1e" stroke-width="1" fill="none"></path></g></g><mask></mask></svg>