<svg version="1.1" xmlns="http://www.w3.org/2000/svg" viewBox="0 0 123.90406747321606 144.6849022894337" width="123.90406747321606" height="144.6849022894337">
  <!-- svg-source:excalidraw -->
  
  <defs>
    <style class="style-fonts">
      @font-face {
        font-family: "Virgil";
        src: url("https://excalidraw.com/Virgil.woff2");
      }
      @font-face {
        font-family: "Cascadia";
        src: url("https://excalidraw.com/Cascadia.woff2");
      }
    </style>
    
  </defs>
  <g stroke-linecap="round"><g transform="translate(32.93054976765666 31.49740373316206) rotate(0 4.729876909337378 46.62442070157326)"><path d="M-1.86 -0.37 C1.71 38.01, 5.58 73.16, 9.54 93.62 M-1.49 1.24 C4.68 24.65, 5.24 46.6, 11.32 92.33" stroke="#1e1e1e" stroke-width="1" fill="none"></path></g></g><mask></mask><g stroke-linecap="round"><g transform="translate(80.94140525743677 22.181860201983852) rotate(0 -21.372733745914132 24.54664112198151)"><path d="M3.24 2.76 C-13.87 9.9, -20.65 25.74, -41.78 45.89 M-1.44 -0.52 C-11.73 15.42, -24.82 27.71, -45.98 49.61" stroke="#1e1e1e" stroke-width="1" fill="none"></path></g></g><mask></mask><g stroke-linecap="round"><g transform="translate(35.08030572212351 69.11784591513612) rotate(0 28.425378140230833 22.734558381445282)"><path d="M0.67 2 C10.5 13.38, 23.14 18.07, 56.18 46.08 M1.14 -0.61 C17.66 17.52, 39.2 30.42, 54.98 45.2" stroke="#1e1e1e" stroke-width="1" fill="none"></path></g></g><mask></mask><g stroke-linecap="round" transform="translate(10 10) rotate(0 51.95203373660803 62.342451144716875)"><path d="M55.88 -0.52 C63.32 -0.62, 72.5 4.91, 79.53 10.12 C86.56 15.32, 93.9 22.28, 98.05 30.7 C102.19 39.12, 104.27 51.01, 104.39 60.65 C104.51 70.29, 102.06 79.98, 98.76 88.52 C95.46 97.06, 91.06 105.77, 84.59 111.88 C78.12 117.99, 67.98 123.26, 59.92 125.19 C51.86 127.11, 43.41 126.78, 36.23 123.44 C29.05 120.1, 22.33 112.62, 16.84 105.15 C11.35 97.68, 5.79 87.56, 3.28 78.62 C0.76 69.67, 0.6 60.63, 1.74 51.5 C2.87 42.36, 5.48 31.6, 10.09 23.82 C14.7 16.03, 20.79 8.33, 29.39 4.79 C37.99 1.25, 55.63 2.7, 61.69 2.6 C67.76 2.49, 65.72 3.64, 65.8 4.15 M30.33 2.52 C37.47 -1.83, 48.22 -4.26, 56.36 -2.55 C64.5 -0.84, 72.28 6.77, 79.18 12.77 C86.09 18.77, 93.41 25.09, 97.8 33.47 C102.19 41.85, 105.09 53.94, 105.51 63.04 C105.92 72.13, 104.09 79.36, 100.3 88.02 C96.52 96.69, 89.61 109.09, 82.82 115.03 C76.03 120.96, 67.76 122.63, 59.56 123.64 C51.37 124.64, 41.38 123.98, 33.64 121.06 C25.89 118.15, 18.49 112.88, 13.08 106.15 C7.67 99.41, 3.54 90.37, 1.16 80.64 C-1.22 70.9, -3.27 57.48, -1.19 47.75 C0.88 38.02, 7.85 29.5, 13.6 22.26 C19.34 15.02, 29.6 6.9, 33.27 4.31 C36.94 1.72, 35.78 5.9, 35.63 6.7" stroke="#1e1e1e" stroke-width="1" fill="none"></path></g></svg>