<svg version="1.1" xmlns="http://www.w3.org/2000/svg" viewBox="0 0 141.2462013201732 57.306540768122375" width="141.2462013201732" height="57.306540768122375">
  <!-- svg-source:excalidraw -->
  
  <defs>
    <style class="style-fonts">
      @font-face {
        font-family: "Virgil";
        src: url("https://excalidraw.com/Virgil.woff2");
      }
      @font-face {
        font-family: "Cascadia";
        src: url("https://excalidraw.com/Cascadia.woff2");
      }
    </style>
    
  </defs>
  <g stroke-linecap="round" transform="translate(10 10) rotate(0 60.62310066008661 18.653270384061187)"><path d="M-0.55 -2.8 C40.57 3.69, 84.27 -0.88, 124.66 3.3 M1.32 0.38 C33.94 2.87, 70.68 2.55, 123.22 0.74 M121.98 -3.66 C125.58 12.13, 123.53 23.35, 121.95 37.88 M122.82 -1.08 C122.55 7.84, 120.61 16.16, 122.09 36.94 M124.38 38.61 C84.19 40.32, 48.11 36.99, -1.92 36.71 M119.74 38.58 C97.46 37.49, 69.86 39.07, -1.33 38.86 M-1.42 40.27 C-1.44 25.13, -0.66 13.62, -2 1.79 M1.14 37.39 C0.87 30.91, 1.8 23.23, -0.84 0.66" stroke="#1e1e1e" stroke-width="1" fill="none"></path></g></svg>