<svg version="1.1" xmlns="http://www.w3.org/2000/svg" viewBox="0 0 307.7346323237987 273.2048104380688" width="307.7346323237987" height="273.2048104380688">
  <!-- svg-source:excalidraw -->
  
  <defs>
    <style class="style-fonts">
      @font-face {
        font-family: "Virgil";
        src: url("https://excalidraw.com/Virgil.woff2");
      }
      @font-face {
        font-family: "Cascadia";
        src: url("https://excalidraw.com/Cascadia.woff2");
      }
    </style>
    
  </defs>
  <g stroke-linecap="round" transform="translate(10 10) rotate(0 143.86731616189934 126.60240521903441)"><path d="M32 0 M32 0 C105.82 5.9, 175.6 0.6, 255.73 0 M32 0 C82.26 -3.88, 132.35 -2.82, 255.73 0 M255.73 0 C276.54 -3.08, 286.64 9.29, 287.73 32 M255.73 0 C280.7 4.23, 284.32 10.86, 287.73 32 M287.73 32 C280.88 106.6, 283.29 179.69, 287.73 221.2 M287.73 32 C287.35 72.11, 285.43 109.67, 287.73 221.2 M287.73 221.2 C290.89 246.36, 281.02 250.65, 255.73 253.2 M287.73 221.2 C287.31 241.16, 279.52 255.23, 255.73 253.2 M255.73 253.2 C176.89 248.16, 98.14 248.5, 32 253.2 M255.73 253.2 C190.91 255.06, 122 254.05, 32 253.2 M32 253.2 C11.39 252.43, -1.6 239.1, 0 221.2 M32 253.2 C11.89 252.79, -1.69 239.43, 0 221.2 M0 221.2 C-0.32 145.14, 4.3 75.03, 0 32 M0 221.2 C-2.09 149.55, -1.32 75.59, 0 32 M0 32 C-1.26 13.18, 7.14 1.58, 32 0 M0 32 C-0.44 10.33, 9.02 2.29, 32 0" stroke="#1e1e1e" stroke-width="1" fill="none"></path></g></svg>