<svg version="1.1" xmlns="http://www.w3.org/2000/svg" viewBox="0 0 145.18351024835874 140.4054786121274" width="145.18351024835874" height="140.4054786121274">
  <!-- svg-source:excalidraw -->
  
  <defs>
    <style class="style-fonts">
      @font-face {
        font-family: "Virgil";
        src: url("https://excalidraw.com/Virgil.woff2");
      }
      @font-face {
        font-family: "Cascadia";
        src: url("https://excalidraw.com/Cascadia.woff2");
      }
    </style>
    
  </defs>
  <g stroke-linecap="round"><g transform="translate(44.7066263770015 28.79704486340131) rotate(0 4.729876909337378 46.62442070157326)"><path d="M-1.86 -0.37 C1.71 38.01, 5.58 73.16, 9.54 93.62 M-1.49 1.24 C4.68 24.65, 5.24 46.6, 11.32 92.33" stroke="#1e1e1e" stroke-width="1" fill="none"></path></g></g><mask></mask><g stroke-linecap="round"><g transform="translate(92.71748186678161 19.481501332223104) rotate(0 -21.372733745914132 24.54664112198151)"><path d="M3.24 2.76 C-13.87 9.9, -20.65 25.74, -41.78 45.89 M-1.44 -0.52 C-11.73 15.42, -24.82 27.71, -45.98 49.61" stroke="#1e1e1e" stroke-width="1" fill="none"></path></g></g><mask></mask><g stroke-linecap="round"><g transform="translate(46.85638233146835 66.41748704537537) rotate(0 28.425378140230833 22.734558381445282)"><path d="M0.67 2 C10.5 13.38, 23.14 18.07, 56.18 46.08 M1.14 -0.61 C17.66 17.52, 39.2 30.42, 54.98 45.2" stroke="#1e1e1e" stroke-width="1" fill="none"></path></g></g><mask></mask><g stroke-linecap="round" transform="translate(10 10) rotate(0 62.59175512417937 60.202739306063705)"><path d="M30.1 0 M30.1 0 C43.49 -1.47, 56.24 0.81, 95.08 0 M30.1 0 C52.72 0.28, 74.87 -0.15, 95.08 0 M95.08 0 C113.67 3, 124.49 11.65, 125.18 30.1 M95.08 0 C116.93 2.18, 128.07 6.28, 125.18 30.1 M125.18 30.1 C127.31 43.85, 127.19 65.73, 125.18 90.3 M125.18 30.1 C124.25 41.89, 123.06 55.51, 125.18 90.3 M125.18 90.3 C123.36 114.33, 114.96 120.74, 95.08 120.41 M125.18 90.3 C121.1 106.95, 111.7 120.63, 95.08 120.41 M95.08 120.41 C76.61 120.86, 60.7 123.15, 30.1 120.41 M95.08 120.41 C72.94 121.92, 53.09 119.09, 30.1 120.41 M30.1 120.41 C6.22 124.13, -3.99 109.45, 0 90.3 M30.1 120.41 C12.27 117.53, 1.42 109.98, 0 90.3 M0 90.3 C-3.68 77.62, 0.65 58.9, 0 30.1 M0 90.3 C1.74 68.19, 1.74 45.64, 0 30.1 M0 30.1 C1.73 12.85, 11.3 -3.92, 30.1 0 M0 30.1 C-2.54 11.18, 14.27 2.29, 30.1 0" stroke="#1e1e1e" stroke-width="1" fill="none"></path></g></svg>