<svg version="1.1" xmlns="http://www.w3.org/2000/svg" viewBox="0 0 141.2462013201732 57.306540768122375" width="141.2462013201732" height="57.306540768122375">
  <!-- svg-source:excalidraw -->
  
  <defs>
    <style class="style-fonts">
      @font-face {
        font-family: "Virgil";
        src: url("https://excalidraw.com/Virgil.woff2");
      }
      @font-face {
        font-family: "Cascadia";
        src: url("https://excalidraw.com/Cascadia.woff2");
      }
    </style>
    
  </defs>
  <g stroke-linecap="round" transform="translate(10 10) rotate(0 60.62310066008661 18.653270384061187)"><path d="M9.33 0 M9.33 0 C48.07 -0.5, 88.57 -0.36, 111.92 0 M9.33 0 C30.95 0.39, 51.7 -0.31, 111.92 0 M111.92 0 C117.85 1.18, 119.4 4.61, 121.25 9.33 M111.92 0 C116.99 1.96, 121.97 2.78, 121.25 9.33 M121.25 9.33 C122.13 16.09, 120.54 20.99, 121.25 27.98 M121.25 9.33 C120.67 13.73, 121.74 16.87, 121.25 27.98 M121.25 27.98 C119.92 34.05, 117.22 36.7, 111.92 37.31 M121.25 27.98 C122.44 31.93, 117.75 39.04, 111.92 37.31 M111.92 37.31 C72.96 37.1, 34.28 36.81, 9.33 37.31 M111.92 37.31 C87.86 38.21, 64.53 37.25, 9.33 37.31 M9.33 37.31 C2.24 37.85, 0.9 32.99, 0 27.98 M9.33 37.31 C3.99 35.14, 1.42 33.58, 0 27.98 M0 27.98 C0.94 23.76, -0.31 14.67, 0 9.33 M0 27.98 C0.12 20.64, -0.5 13.25, 0 9.33 M0 9.33 C1.46 1.9, 3.05 -0.68, 9.33 0 M0 9.33 C-0.73 1.73, 3.4 0.86, 9.33 0" stroke="#1e1e1e" stroke-width="1" fill="none"></path></g></svg>