<svg version="1.1" xmlns="http://www.w3.org/2000/svg" viewBox="0 0 141.2462013201732 57.306540768122375" width="141.2462013201732" height="57.306540768122375">
  <!-- svg-source:excalidraw -->
  
  <defs>
    <style class="style-fonts">
      @font-face {
        font-family: "Virgil";
        src: url("https://excalidraw.com/Virgil.woff2");
      }
      @font-face {
        font-family: "Cascadia";
        src: url("https://excalidraw.com/Cascadia.woff2");
      }
    </style>
    
  </defs>
  <g stroke-linecap="round" transform="translate(10 10) rotate(0 60.62310066008661 18.653270384061187)"><path d="M9.33 0 M9.33 0 C32.22 -2.27, 56.85 -3.86, 111.92 0 M9.33 0 C37.2 1.68, 65.97 1.4, 111.92 0 M111.92 0 C121.74 2.08, 123.06 2.42, 121.25 9.33 M111.92 0 C115.7 -3.48, 116.67 2.42, 121.25 9.33 M121.25 9.33 C120 17.72, 118.18 22.22, 121.25 27.98 M121.25 9.33 C122.22 13.6, 121.36 22.16, 121.25 27.98 M121.25 27.98 C122.84 33.82, 116.2 36.05, 111.92 37.31 M121.25 27.98 C125 36.24, 116.74 37.93, 111.92 37.31 M111.92 37.31 C74.13 32.66, 28.05 39.73, 9.33 37.31 M111.92 37.31 C87.42 38.61, 59.71 38.76, 9.33 37.31 M9.33 37.31 C1.95 38.4, 1.68 34.14, 0 27.98 M9.33 37.31 C4.17 36.17, 2.61 32.9, 0 27.98 M0 27.98 C3.67 24.35, 0.12 22.2, 0 9.33 M0 27.98 C-0.74 22.21, -2.07 14.37, 0 9.33 M0 9.33 C1.77 1.98, 2.14 -2.77, 9.33 0 M0 9.33 C-0.7 6.21, 2.47 -2.47, 9.33 0" stroke="#1e1e1e" stroke-width="1" fill="none"></path></g></svg>