<svg version="1.1" xmlns="http://www.w3.org/2000/svg" viewBox="0 0 141.2462013201732 57.306540768122375" width="141.2462013201732" height="57.306540768122375">
  <!-- svg-source:excalidraw -->
  
  <defs>
    <style class="style-fonts">
      @font-face {
        font-family: "Virgil";
        src: url("https://excalidraw.com/Virgil.woff2");
      }
      @font-face {
        font-family: "Cascadia";
        src: url("https://excalidraw.com/Cascadia.woff2");
      }
    </style>
    
  </defs>
  <g stroke-linecap="round" transform="translate(10 10) rotate(0 60.62310066008661 18.653270384061187)"><path d="M0.81 0.13 C30.07 -4.1, 61.72 0.98, 125.08 -1.03 M-0.92 0.52 C45.69 1.36, 95.55 0.89, 119.37 -1.93 M122.72 -1.3 C118.43 6.42, 118.15 20.7, 123.06 35.44 M120.62 1.08 C122.13 8.33, 121.54 20.12, 119.84 36.38 M122.12 33.83 C84.48 36.42, 50.75 36.24, 3.37 36.64 M121.28 37.83 C75.01 37.82, 24.17 39.11, 0.58 39.15 M0.13 38.51 C2.38 27.87, 3.08 16.24, 2.89 2.48 M-1.16 36.11 C-0.14 30.7, -0.99 21.47, -0.85 -0.75" stroke="#1e1e1e" stroke-width="1" fill="none"></path></g></svg>