<svg version="1.1" xmlns="http://www.w3.org/2000/svg" viewBox="0 0 307.7346323237987 273.2048104380688" width="307.7346323237987" height="273.2048104380688">
  <!-- svg-source:excalidraw -->
  
  <defs>
    <style class="style-fonts">
      @font-face {
        font-family: "Virgil";
        src: url("https://excalidraw.com/Virgil.woff2");
      }
      @font-face {
        font-family: "Cascadia";
        src: url("https://excalidraw.com/Cascadia.woff2");
      }
    </style>
    
  </defs>
  <g stroke-linecap="round" transform="translate(10 10) rotate(0 143.86731616189934 126.60240521903441)"><path d="M32 0 M32 0 C108.36 2.26, 192.5 0.21, 255.73 0 M32 0 C100.6 -1.67, 168.87 -2.4, 255.73 0 M255.73 0 C274.66 -0.9, 291.52 12.42, 287.73 32 M255.73 0 C279.88 -3.52, 287.6 7.33, 287.73 32 M287.73 32 C285.89 89.93, 292.43 143.18, 287.73 221.2 M287.73 32 C286.3 77.83, 283.45 123.45, 287.73 221.2 M287.73 221.2 C287.21 242.01, 273.99 252.11, 255.73 253.2 M287.73 221.2 C286.16 246.17, 281.29 249.79, 255.73 253.2 M255.73 253.2 C188.93 246.79, 119.96 248.85, 32 253.2 M255.73 253.2 C192.69 252.57, 131 250.93, 32 253.2 M32 253.2 C7.52 256.36, 3.82 246.49, 0 221.2 M32 253.2 C7.72 252.78, -1.38 244.99, 0 221.2 M0 221.2 C-4.8 155.39, -4.47 89.7, 0 32 M0 221.2 C0.78 176.3, 0.98 126.64, 0 32 M0 32 C-0.74 11.39, 9.89 -1.6, 32 0 M0 32 C-3.95 11.89, 10.25 -1.69, 32 0" stroke="#1e1e1e" stroke-width="1" fill="none"></path></g></svg>