<svg version="1.1" xmlns="http://www.w3.org/2000/svg" viewBox="0 0 307.7346323237987 273.2048104380688" width="307.7346323237987" height="273.2048104380688">
  <!-- svg-source:excalidraw -->
  
  <defs>
    <style class="style-fonts">
      @font-face {
        font-family: "Virgil";
        src: url("https://excalidraw.com/Virgil.woff2");
      }
      @font-face {
        font-family: "Cascadia";
        src: url("https://excalidraw.com/Cascadia.woff2");
      }
    </style>
    
  </defs>
  <g stroke-linecap="round" transform="translate(10 10) rotate(0 143.86731616189934 126.60240521903441)"><path d="M32 0 M32 0 C99.37 -1.63, 167.3 -0.96, 255.73 0 M32 0 C107.46 -0.87, 184.35 -1.27, 255.73 0 M255.73 0 C276.35 0.99, 289.17 11.21, 287.73 32 M255.73 0 C275.85 0.25, 286.34 9.2, 287.73 32 M287.73 32 C289.16 93.39, 289.02 156.38, 287.73 221.2 M287.73 32 C288.97 69.52, 288.91 108.04, 287.73 221.2 M287.73 221.2 C288.27 243.15, 276.19 253.7, 255.73 253.2 M287.73 221.2 C286.53 242.07, 278.32 252.05, 255.73 253.2 M255.73 253.2 C174.5 253.96, 90.57 255.18, 32 253.2 M255.73 253.2 C191.65 251.64, 126.35 251.7, 32 253.2 M32 253.2 C10.46 254.32, -0.48 244.08, 0 221.2 M32 253.2 C12.87 252.7, 1.68 244, 0 221.2 M0 221.2 C0.65 149.62, 0.07 77.19, 0 32 M0 221.2 C-0.14 156.83, -1.14 92.07, 0 32 M0 32 C-0.67 9.65, 11.92 0.75, 32 0 M0 32 C-0.12 9.11, 9.02 -1.81, 32 0" stroke="#1e1e1e" stroke-width="1" fill="none"></path></g></svg>